<?xml version="1.0" encoding="UTF-8" standalone="no"?>
<!-- Created with Inkscape (http://www.inkscape.org/) -->

<svg
   width="90.649971mm"
   height="106.80067mm"
   viewBox="0 0 90.649971 106.80067"
   version="1.1"
   id="svg1"
   inkscape:version="1.3.2 (091e20e, 2023-11-25, custom)"
   sodipodi:docname="hyperbooklogosvg2.svg"
   xmlns:inkscape="http://www.inkscape.org/namespaces/inkscape"
   xmlns:sodipodi="http://sodipodi.sourceforge.net/DTD/sodipodi-0.dtd"
   xmlns="http://www.w3.org/2000/svg"
   xmlns:svg="http://www.w3.org/2000/svg"
   xmlns:rdf="http://www.w3.org/1999/02/22-rdf-syntax-ns#"
   xmlns:cc="http://creativecommons.org/ns#"
   xmlns:dc="http://purl.org/dc/elements/1.1/">
  <sodipodi:namedview
     id="namedview1"
     pagecolor="#ffffff"
     bordercolor="#000000"
     borderopacity="0.25"
     inkscape:showpageshadow="2"
     inkscape:pageopacity="0.0"
     inkscape:pagecheckerboard="0"
     inkscape:deskcolor="#d1d1d1"
     inkscape:document-units="mm"
     showgrid="true"
     inkscape:zoom="1.4022026"
     inkscape:cx="-62.045242"
     inkscape:cy="161.53158"
     inkscape:window-width="1920"
     inkscape:window-height="1001"
     inkscape:window-x="-9"
     inkscape:window-y="-9"
     inkscape:window-maximized="1"
     inkscape:current-layer="svg1" />
  <defs
     id="defs1">
    <rect
       x="110.54038"
       y="80.587502"
       width="9.2711287"
       height="43.502987"
       id="rect2" />
  </defs>
  <title
     id="title1">network</title>
  <path
     d="M 5.1951841,90.903574 V 22.337511 c 0,-6.000062 0,-9.000149 1.09348,-11.291861 0.96182,-2.015897 2.49658,-3.65484 4.3843399,-4.681939 2.14604,-1.167712 4.95543,-1.167712 10.5741,-1.167712 h 48.15576 c 5.61864,0 8.42825,0 10.57419,1.167712 1.88761,1.027099 3.42258,2.666042 4.3842,4.681939 1.09353,2.291712 1.09353,5.291799 1.09353,11.291861 V 80.19012 h -70.22715 c -5.5407699,0 -10.0324499,4.796414 -10.0324499,10.713454 z m 0,0 c 0,5.91704 4.49168,10.713436 10.0324499,10.713436 h 70.22715 M 30.276304,26.622891 h 30.09735 m -30.09735,21.426895 h 30.09735 m 20.06488,32.140334 v 21.42689"
     stroke="#000000"
     stroke-width="10.3673"
     stroke-linecap="round"
     stroke-linejoin="round"
     id="path1"
     style="fill:#f4eed7" />
  <metadata
     id="metadata4">
    <rdf:RDF>
      <cc:Work
         rdf:about="">
        <dc:title>network</dc:title>
      </cc:Work>
    </rdf:RDF>
  </metadata>
  <rect
     style="fill:none;fill-opacity:1;stroke-width:0.264583"
     id="rect5"
     width="37.926937"
     height="46.606731"
     x="-12.243959"
     y="11.965599" />
  <g
     inkscape:label="Layer 1"
     inkscape:groupmode="layer"
     id="layer1"
     transform="translate(-111.30686,-15.205936)">
    <rect
       style="fill:#e6e6e5;fill-opacity:1;stroke-width:0.264583"
       id="rect6"
       width="51.32399"
       height="47.3615"
       x="130.57434"
       y="29.058449" />
    <path
       d="m 133.09949,77.422286 v 1.930572 h -3.96091 v -1.930572 h 3.96091 m -3.41177,-4.703934 v 11.612834 h -1.94376 V 72.718352 h 1.94376 m 4.81998,0 v 11.612834 h -1.92473 V 72.718352 Z m 3.29215,10.623048 1.49792,-7.640623 h 1.93832 l -2.36241,9.920724 q -0.0788,0.326662 -0.21749,0.70559 -0.14136,0.378928 -0.36972,0.718656 -0.22835,0.339729 -0.57361,0.555326 -0.34525,0.215597 -0.82916,0.215597 -0.24738,0 -0.39418,-0.03593 -0.14952,-0.03593 -0.37516,-0.117598 V 85.9253 q 0.0598,0 0.11418,0.0033 0.0571,0.0033 0.11146,0.0033 0.30991,0 0.49749,-0.098 0.18486,-0.101265 0.30176,-0.307062 0.1169,-0.209064 0.19573,-0.519393 l 0.46487,-1.665976 m -0.38603,-7.640623 1.1146,6.190244 0.25283,2.518564 -1.25325,0.143731 -2.10415,-8.852539 z m 6.49188,1.659442 v 10.286518 h -1.85133 V 75.700777 h 1.71269 l 0.13864,1.659442 m 3.72984,2.361767 v 0.571658 q 0,1.012652 -0.1468,1.790108 -0.1468,0.777456 -0.43496,1.316448 -0.28817,0.538992 -0.72042,0.813388 -0.42953,0.277663 -1.00858,0.277663 -0.53555,0 -0.9243,-0.307063 -0.38876,-0.307062 -0.65517,-0.852587 -0.2637,-0.542259 -0.4241,-1.267448 -0.16039,-0.72519 -0.24466,-1.554912 v -0.891787 q 0.0788,-0.885254 0.23107,-1.630044 0.15224,-0.748056 0.42138,-1.296847 0.26913,-0.552059 0.65788,-0.849322 0.38876,-0.300529 0.92431,-0.300529 0.58449,0 1.01945,0.254796 0.43497,0.254797 0.72314,0.770923 0.28816,0.512859 0.43496,1.303381 0.1468,0.790522 0.1468,1.852174 m -1.85948,0.571658 v -0.571658 q 0,-0.623925 -0.0544,-1.061652 -0.0571,-0.437727 -0.17671,-0.718656 -0.11961,-0.277663 -0.31263,-0.405061 -0.19301,-0.127399 -0.47031,-0.127399 -0.27185,0 -0.47574,0.127399 -0.20117,0.127398 -0.32895,0.369128 -0.12505,0.244997 -0.19029,0.591258 -0.068,0.346262 -0.0734,0.783989 v 1.564711 q 0.0136,0.516126 0.11418,0.91792 0.1033,0.398527 0.3371,0.633724 0.23107,0.235198 0.6307,0.235198 0.28544,0 0.47302,-0.143732 0.1903,-0.143732 0.30992,-0.431195 0.11961,-0.287462 0.16855,-0.725188 0.0489,-0.440995 0.0489,-1.038786 z m 5.8938,4.197607 q -0.73672,0 -1.30218,-0.274396 -0.56818,-0.271129 -0.95965,-0.783989 -0.39147,-0.512859 -0.59808,-1.247849 -0.20661,-0.734989 -0.20661,-1.675776 v -0.708857 q 0,-1.051851 0.20118,-1.84564 0.19845,-0.793788 0.56273,-1.336048 0.36429,-0.542258 0.89984,-0.810121 0.53284,-0.267863 1.20975,-0.267863 0.67692,0 1.19344,0.267863 0.51381,0.267863 0.85091,0.797055 0.33982,0.532459 0.51109,1.313181 0.17398,0.780723 0.17398,1.816241 v 1.022453 h -4.81182 V 79.18626 h 2.98768 v -0.199263 q 0,-0.525927 -0.0951,-0.881988 -0.0924,-0.352795 -0.29088,-0.529193 -0.19846,-0.176397 -0.53012,-0.176397 -0.28001,0 -0.47303,0.137198 -0.19301,0.133931 -0.30447,0.421394 -0.11418,0.287462 -0.16583,0.744789 -0.0544,0.460594 -0.0544,1.097584 v 0.708857 q 0,0.597791 0.087,1.002852 0.087,0.401795 0.25554,0.653325 0.16855,0.251529 0.41594,0.359327 0.24466,0.1078 0.57089,0.1078 0.48934,0 0.88625,-0.212332 0.39418,-0.21233 0.67147,-0.578191 l 0.74489,1.355647 q -0.19302,0.303796 -0.53012,0.607592 -0.33982,0.300529 -0.81013,0.493259 -0.47302,0.192731 -1.09013,0.192731 z m 5.46971,-6.869702 v 6.709637 h -1.85948 v -8.630409 h 1.75346 l 0.10602,1.920772 m 1.69365,-1.982839 -0.0272,2.224569 q -0.12777,-0.03267 -0.30176,-0.049 -0.1767,-0.01633 -0.30991,-0.01633 -0.31263,0 -0.53012,0.117598 -0.2202,0.114331 -0.36156,0.342995 -0.14408,0.225397 -0.21749,0.561858 -0.0707,0.333196 -0.0843,0.757856 l -0.35341,-0.160064 q 0,-0.846054 0.11146,-1.551645 0.10874,-0.705589 0.32623,-1.228248 0.2202,-0.52266 0.53011,-0.810122 0.3072,-0.287463 0.69867,-0.287463 0.13321,0 0.28273,0.0294 0.14952,0.02613 0.23651,0.0686 z m 0.95421,-3.557349 h 1.85133 v 10.247388 l -0.13321,2.002437 h -1.71812 V 72.081361 m 5.58117,7.647158 v 0.565125 q 0,1.055118 -0.13593,1.835841 -0.13592,0.780722 -0.41865,1.306648 -0.28001,0.525925 -0.7177,0.790522 -0.4404,0.264596 -1.03576,0.264596 -0.53827,0 -0.92431,-0.307063 -0.38331,-0.307062 -0.64701,-0.855854 -0.26098,-0.545526 -0.42409,-1.283782 -0.16312,-0.738256 -0.23652,-1.61371 v -0.839521 q 0.068,-0.859121 0.23108,-1.600644 0.16039,-0.741523 0.42137,-1.290315 0.25827,-0.545526 0.64702,-0.852588 0.38875,-0.307062 0.91886,-0.307062 0.60896,0 1.04936,0.267863 0.43769,0.267863 0.7177,0.793789 0.28273,0.525925 0.41865,1.313181 0.13593,0.783989 0.13593,1.812974 m -1.85133,0.565125 v -0.565125 q 0,-0.597792 -0.0381,-1.028985 -0.0408,-0.431194 -0.1468,-0.718657 -0.10602,-0.287462 -0.30176,-0.431194 -0.19573,-0.140465 -0.5138,-0.140465 -0.28545,0 -0.47847,0.130666 -0.19301,0.130664 -0.32894,0.382194 -0.13593,0.25153 -0.19845,0.591258 -0.0652,0.336462 -0.0707,0.74479 v 1.505912 q 0.005,0.552058 0.11417,0.973452 0.10603,0.42466 0.33982,0.653324 0.23652,0.23193 0.63342,0.23193 0.31264,0 0.50565,-0.127398 0.19302,-0.127399 0.30176,-0.405061 0.10874,-0.280929 0.1468,-0.721923 0.0353,-0.44426 0.0353,-1.074718 z m 2.78107,0.01633 v -0.581458 q 0,-1.012653 0.20389,-1.793375 0.20118,-0.783989 0.57905,-1.313181 0.37788,-0.529192 0.91343,-0.806855 0.53284,-0.274396 1.19888,-0.274396 0.66876,0 1.20432,0.274396 0.53283,0.277663 0.91614,0.806855 0.3806,0.529192 0.58721,1.313181 0.20389,0.780722 0.20389,1.793375 v 0.581458 q 0,1.006119 -0.20389,1.786841 -0.20661,0.780722 -0.58721,1.316449 -0.38331,0.532459 -0.91343,0.803588 -0.53011,0.274396 -1.19615,0.274396 -0.66333,0 -1.19616,-0.274396 -0.53556,-0.271126 -0.91887,-0.803585 -0.38603,-0.535727 -0.58721,-1.316449 -0.20389,-0.780722 -0.20389,-1.786841 m 1.85949,-0.581458 v 0.581458 q 0,0.597791 0.068,1.038785 0.0707,0.437727 0.2066,0.72519 0.13593,0.287462 0.32895,0.421394 0.19301,0.137199 0.44312,0.137199 0.25282,0 0.45128,-0.137199 0.20117,-0.133932 0.32894,-0.421394 0.13049,-0.287463 0.19302,-0.72519 0.0625,-0.440994 0.0625,-1.038785 v -0.581458 q 0,-0.581458 -0.0734,-1.025719 -0.0707,-0.440993 -0.20389,-0.72519 -0.13321,-0.284195 -0.32894,-0.431193 -0.19574,-0.146998 -0.44041,-0.146998 -0.24739,0 -0.43497,0.146998 -0.19029,0.146998 -0.32622,0.431193 -0.13593,0.284197 -0.20661,0.72519 -0.068,0.444261 -0.068,1.025719 z m 4.90425,0.581458 v -0.581458 q 0,-1.012653 0.20117,-1.793375 0.20389,-0.783989 0.58177,-1.313181 0.37788,-0.529192 0.91343,-0.806855 0.53283,-0.274396 1.19616,-0.274396 0.67148,0 1.20431,0.274396 0.53556,0.277663 0.91615,0.806855 0.38332,0.529192 0.58721,1.313181 0.20661,0.780722 0.20661,1.793375 v 0.581458 q 0,1.006119 -0.20661,1.786841 -0.20389,0.780722 -0.58721,1.316449 -0.38059,0.532459 -0.91071,0.803588 -0.53283,0.274396 -1.19616,0.274396 -0.66332,0 -1.19616,-0.274396 -0.53555,-0.271129 -0.92158,-0.803588 -0.38332,-0.535727 -0.58721,-1.316449 -0.20117,-0.780722 -0.20117,-1.786841 m 1.85948,-0.581458 v 0.581458 q 0,0.597791 0.068,1.038785 0.0707,0.437727 0.20661,0.72519 0.13593,0.287462 0.32894,0.421394 0.1903,0.137199 0.44313,0.137199 0.25282,0 0.45128,-0.137199 0.20117,-0.133932 0.32894,-0.421394 0.13049,-0.287463 0.19302,-0.72519 0.0625,-0.440994 0.0625,-1.038785 v -0.581458 q 0,-0.581458 -0.0734,-1.025719 -0.0734,-0.440993 -0.2039,-0.72519 -0.1332,-0.284195 -0.32894,-0.431193 -0.19573,-0.146998 -0.44312,-0.146998 -0.24467,0 -0.43497,0.146998 -0.18758,0.146998 -0.32351,0.431193 -0.13592,0.284197 -0.2066,0.72519 -0.068,0.444261 -0.068,1.025719 z m 6.97306,-7.656957 v 12.259624 h -1.85676 V 72.071562 h 1.85676 m 3.77878,3.629215 -2.53096,4.292338 -1.51967,2.048171 -0.65517,-1.698642 1.16626,-2.048172 1.32121,-2.593695 h 2.21833 m -1.93832,8.630409 -1.56588,-3.965676 1.28043,-1.417713 2.41407,5.383389 z"
       id="path2"
       style="stroke-width:0.298001" />
    <text
       xml:space="preserve"
       transform="scale(0.26458333)"
       id="text2"
       style="font-style:normal;font-variant:normal;font-weight:normal;font-stretch:normal;font-size:26.6667px;font-family:'Placard Condensed';-inkscape-font-specification:'Placard Condensed, Normal';font-variant-ligatures:normal;font-variant-caps:normal;font-variant-numeric:normal;font-variant-east-asian:normal;white-space:pre;shape-inside:url(#rect2);display:inline;fill:#280b0b" />
    <path
       d="m 170.07544,59.114869 c -1.17429,0.0054 -2.27178,0.305173 -3.20382,0.820901 l 0.0266,-0.01333 -3.97928,-3.263612 c 1.06941,-1.472557 1.70455,-3.27694 1.70455,-5.214584 0,-2.094896 -0.74296,-4.033874 -2.00587,-5.613041 l 0.0221,0.02798 4.52284,-4.080515 c 0.84194,0.42111 1.84489,0.670312 2.91136,0.676976 h 0.003 c 3.46673,0 6.27763,-2.535996 6.27763,-5.663682 0,-3.127684 -2.8109,-5.66368 -6.27763,-5.66368 -3.46673,0 -6.27762,2.535996 -6.27762,5.66368 v 0 c 0.008,0.964826 0.28507,1.869682 0.7666,2.6586 l -0.0162,-0.02932 -4.52285,4.080515 c -1.69422,-1.11941 -3.82122,-1.791056 -6.12105,-1.791056 -1.28211,0 -2.50957,0.209223 -3.64397,0.590356 l 0.0724,-0.02132 -0.95125,-1.559178 c 1.07237,-1.0088 1.73262,-2.381411 1.73262,-3.892615 0,-3.107695 -2.79317,-5.627699 -6.23773,-5.627699 -3.44458,0 -6.23774,2.520004 -6.23774,5.627699 0,3.107697 2.79316,5.627701 6.23774,5.627701 0.45198,0 0.89363,-0.04398 1.31903,-0.1266 l -0.0414,0.0066 0.94829,1.553847 c -2.48889,1.75241 -4.0738,4.45765 -4.0738,7.498714 0,0.806241 0.11225,1.589828 0.322,2.337435 l -0.0162,-0.06531 -0.98521,0.377135 c -1.15213,-1.204699 -2.84635,-1.964298 -4.73702,-1.964298 -3.44752,0 -6.24218,2.521337 -6.24218,5.631697 0,3.110361 2.79466,5.631699 6.24218,5.631699 3.44752,0 6.24217,-2.521338 6.24217,-5.631699 0,-0.01066 0,-0.02266 0,-0.03332 v 0.0014 c -0.0118,-0.211887 -0.034,-0.409117 -0.0679,-0.601016 l 0.004,0.03198 0.98523,-0.377134 c 1.92464,2.69991 5.23923,4.462981 9.01022,4.462981 2.51548,0 4.82712,-0.78492 6.65133,-2.097561 l -0.0221,0.01465 3.9911,3.271609 c -0.38109,0.700964 -0.60561,1.52453 -0.61151,2.394738 v 0.0014 c 0,3.127685 2.8109,5.663682 6.27763,5.663682 3.46673,0 6.27762,-2.535997 6.27762,-5.663682 0,-3.127683 -2.81089,-5.66368 -6.27762,-5.66368 v 0 z M 142.2914,36.793304 c 0,-1.287322 1.15804,-2.332104 2.58491,-2.332104 1.42687,0 2.5849,1.044782 2.5849,2.332104 0,1.287321 -1.15803,2.332104 -2.5849,2.332104 v 0 c -1.42687,-0.0014 -2.58343,-1.044783 -2.58491,-2.332104 z m -4.7119,23.214429 c -1.42687,-0.0014 -2.58195,-1.043451 -2.58195,-2.330773 0,-1.28732 1.15655,-2.330771 2.58342,-2.330771 1.42687,0 2.58195,1.042118 2.58343,2.32944 v 0 c -0.001,1.287321 -1.15803,2.330771 -2.5849,2.332104 z M 170.07544,34.4612 c 1.42687,0 2.5849,1.044782 2.5849,2.332104 0,1.287321 -1.15803,2.332104 -2.5849,2.332104 -1.42687,0 -2.58492,-1.044783 -2.58492,-2.332104 v 0 c 0.001,-1.287322 1.15805,-2.330771 2.58492,-2.332104 z m -23.35277,16.991043 c 0,-0.0014 0,-0.0026 0,-0.004 0,-3.538135 3.17869,-6.405957 7.10035,-6.405957 1.96158,0 3.73704,0.718289 5.0221,1.877678 l 0.001,0.0014 10e-4,0.0014 c 1.28506,1.159388 2.07826,2.761211 2.07826,4.529612 0,3.539468 -3.18018,6.407288 -7.10184,6.407288 -3.92167,0 -7.10183,-2.869153 -7.10183,-6.407288 z m 23.35277,15.658411 c -1.42687,0 -2.58492,-1.044782 -2.58492,-2.332104 0,-1.287321 1.15805,-2.332103 2.58492,-2.332103 1.42687,0 2.5849,1.044782 2.5849,2.332103 v 0 c -0.001,1.287322 -1.15803,2.330772 -2.5849,2.332104 z"
       id="path3"
       style="stroke-width:1.403" />
  </g>
</svg>
