<?xml version="1.0" encoding="utf-8"?>
<!-- Generator: Adobe Illustrator 27.8.1, SVG Export Plug-In . SVG Version: 6.00 Build 0)  -->
<svg version="1.1" id="Ebene_1" xmlns="http://www.w3.org/2000/svg" xmlns:xlink="http://www.w3.org/1999/xlink" x="0px" y="0px"
    viewBox="0 0 5650 3350" style="enable-background:new 0 0 5650 3350;" xml:space="preserve">
<style type="text/css">
	.st0{fill:none;stroke:#1E1E28;stroke-width:74.635;stroke-linejoin:round;stroke-miterlimit:10;}
	.st1{fill:none;stroke:#1E1E28;stroke-width:70.8202;stroke-linejoin:round;stroke-miterlimit:10;}
	.st2{fill:#1E1E28;}
</style>
    <g>
	<path class="st0" d="M2470.06,511.87c-87.56-61.31-516.86,534.85-1413.01,1814.69l191.04,133.76
		C2144.24,1180.49,2557.62,573.18,2470.06,511.87z"/>
        <line class="st0" x1="1249.54" y1="2051.65" x2="1440.42" y2="2185.31"/>
        <path class="st1" d="M527.63,2864.13c0,0,119.24-52.7,172.43-136.51s79.59-211.87,159.54-292.08
		c55-55.18,127.88-97.79,197.45-108.98l191.04,133.76c7.64,22.54-17.01,64.46-34.08,92.5c-41.74,68.55-158.91,219.11-336.53,263.72
		S527.63,2864.13,527.63,2864.13z"/>
</g>
    <g>
	<path class="st2" d="M4099.06,2138.06c750.21-1074.9,1092.22-1591.61,1011.82-1647.9c-80.4-56.29-448.97,441.81-1202.46,1514.42
		L4099.06,2138.06z"/>
        <path class="st2" d="M3872.64,2055.54c-46,65.53-93.37,133.1-142.18,202.78l191.03,133.76c48.78-69.7,96.08-137.33,141.93-202.96
		L3872.64,2055.54z"/>
        <path class="st2" d="M3691.06,2306.78c-62.73,17.91-137.56,53.8-190.64,107.05c-79.95,80.21-106.35,208.27-159.54,292.08
		c-32.59,51.34-89.96,91.01-129.52,114.04c-9.9,5.76-5.38,20.92,6.06,20.19c63.7-4.07,181.07-15.21,300.89-45.31
		c177.61-44.61,300.56-198.75,336.53-263.72c14.64-26.44,28.32-63.08,32.97-86.57L3691.06,2306.78z"/>
</g>
</svg>

