<?xml version="1.0" encoding="UTF-8" standalone="no"?>
<!-- Generator: Adobe Adobe Illustrator 24.2.0, SVG Export Plug-In . SVG Version: 6.00 Build 0)  -->

<svg
   version="1.1"
   x="0px"
   y="0px"
   width="2000px"
   height="2000px"
   viewBox="0 0 2000 2000"
   style="enable-background:new 0 0 2000 2000;"
   xml:space="preserve"
   id="svg1"
   sodipodi:docname="paintbrush2.svg"
   inkscape:version="1.4.3 (0d15f75, 2025-12-25)"
   xmlns:inkscape="http://www.inkscape.org/namespaces/inkscape"
   xmlns:sodipodi="http://sodipodi.sourceforge.net/DTD/sodipodi-0.dtd"
   xmlns="http://www.w3.org/2000/svg"
   xmlns:svg="http://www.w3.org/2000/svg"><defs
   id="defs1" /><sodipodi:namedview
   id="namedview1"
   pagecolor="#ffffff"
   bordercolor="#000000"
   borderopacity="0.25"
   inkscape:showpageshadow="2"
   inkscape:pageopacity="0.0"
   inkscape:pagecheckerboard="0"
   inkscape:deskcolor="#d1d1d1"
   inkscape:zoom="0.3915"
   inkscape:cx="998.72286"
   inkscape:cy="998.72286"
   inkscape:window-width="1414"
   inkscape:window-height="1030"
   inkscape:window-x="2693"
   inkscape:window-y="366"
   inkscape:window-maximized="0"
   inkscape:current-layer="svg1" />
<style
   type="text/css"
   id="style1">
	.st0{fill:#FFC675;}
	.st1{fill:#C23117;}
	.st2{fill:#FFF9F0;}
	.st3{fill:#CC3E1F;}
	.st4{fill:#992208;}
	.st5{fill:none;stroke:#FF4C3F;stroke-width:14;stroke-miterlimit:10;}
	.st6{fill:none;stroke:#FF00FF;stroke-width:14;stroke-miterlimit:10;}
</style>
<g
   id="Layer_3">
</g>
<g
   id="Layer_2">
	<path
   d="M375.93,1931.23c-4.01,0-7.93-1.86-10.45-5.25c-3.65-4.9-3.41-11.69,0.59-16.31c1.92-2.23,3.79-4.49,5.63-6.81   c0.37-0.55,0.78-1.07,1.24-1.58c36.39-46.95,55.02-112.77,55.4-195.89c0.06-13.12-0.28-26.26-0.61-39.38   c-0.83-32.18-1.68-65.45,3.41-98.3c14.34-92.33,83.58-175.86,176.93-213.96c32.55-53.84,63.6-97.3,100.3-140.4   c96-130.19,225.62-314.88,350.99-493.52c198.31-282.56,385.63-549.47,443.51-607.35c32.19-32.2,63.87-47.76,86.99-42.8   c30.47,6.58,47.08,38.94,47.24,66.03c0.13,22.32-6.91,45.47-22.17,72.85c-180.16,322.94-446.38,733.21-730.69,1126.06   c-34.76,55.1-68.02,96.33-98.91,132.48c5.64,51.52-7.47,100.76-19.74,138.28c-24.63,75.41-79.43,145.77-158.48,203.52   c-65.74,48.02-139.94,82.47-212.43,115.15c-0.24,0.11-0.47,0.22-0.71,0.32c-4.24,1.91-8.47,3.82-12.7,5.72   C379.56,1930.86,377.74,1931.23,375.93,1931.23z M681.66,1576.16c0.97,0,1.95,0.1,2.93,0.33c7.02,1.6,11.41,8.61,9.79,15.62   c-15.46,67.36-56.62,133.66-119.06,191.76c-19.24,17.9-38.9,35.18-58.6,51.54c25.92-14.47,51.12-30.14,75.01-47.58   c52.03-38,120.13-101.9,149.08-190.55c11.26-34.48,23.33-79.42,18.81-125.3c-54.88-24.14-97.03-55.2-144.77-92.83   c-82.3,34.89-145.35,111.4-157.96,192.54c-4.74,30.53-3.96,61.18-3.12,93.63c0.34,13.41,0.69,26.8,0.62,40.19   c-0.11,24.26-1.71,47.19-4.79,68.76c6.85-22.21,11.49-43.92,14.61-63.26l1.03-6.43c11.75-72.95,23.9-148.38,73.15-204.66   c4.75-5.45,12.98-5.98,18.4-1.24c5.42,4.75,5.97,12.99,1.24,18.4c-44.34,50.65-55.87,122.33-67.04,191.65l-1.03,6.43   c-4.32,26.73-11.37,57.71-22.91,88.74c49.35-70.29,87.5-153.84,107.81-239.18c1.68-7.02,8.79-11.31,15.7-9.66   c7,1.67,11.33,8.7,9.66,15.7c-22.73,95.5-65.28,186.44-121.34,261.81c26.32-20.93,52.86-43.78,78.64-67.78   c58.61-54.54,97.13-116.26,111.42-178.51C670.35,1580.25,675.71,1576.16,681.66,1576.16z M634.1,1361.12   c44.36,34.86,83.94,63.76,133.94,86.08c26.09-30.65,53.84-65.11,82.66-108.72c-42.63-15.04-108.79-68.15-109.67-68.87   c-10.49-8.59-19.34-16.55-25.68-23.93C686.38,1281.11,660.68,1317.67,634.1,1361.12z M732.11,1225.08   c13.88,20.88,105.44,84.63,132.5,92.33c282.62-390.71,547.99-799.66,727.56-1121.55c12.98-23.28,18.96-42.34,18.86-59.99   c-0.1-17.19-10.11-37.12-26.66-40.7c-11.24-2.52-35.02,7.72-63.06,35.74c-56.28,56.29-251.66,334.68-440.61,603.9   C956.45,911.85,828,1094.86,732.11,1225.08z"
   id="path1" />
</g>
<path
   style="fill:#ffff00;stroke-width:2.55428"
   d="m 846.7433,1307.3911 c -28.20653,-14.8183 -79.77782,-50.9285 -102.58173,-71.8278 l -10.6277,-9.74 37.58114,-51.609 c 53.45478,-73.4077 159.21536,-222.62631 320.80769,-452.63065 341.9961,-486.78397 414.4314,-583.51246 458.9391,-612.85701 25.7995,-17.010007 42.4483,-14.908191 53.4996,6.75401 4.4421,8.70724 5.2263,13.77343 4.2445,27.42113 -1.5816,21.98553 -9.0251,37.69144 -59.3493,125.22753 -150.0057,260.92665 -348.8195,569.89347 -567.09591,881.29599 -62.20165,88.7396 -117.4401,165.896 -118.81459,165.9588 -0.70242,0.032 -8.17369,-3.5648 -16.6028,-7.993 z"
   id="path2" /><path
   style="fill:#ffff00;stroke-width:2.55428"
   d="m 492.97573,1817.873 c 0,-0.687 6.98819,-12.3676 15.52931,-25.957 41.08502,-65.3687 78.95309,-155.1441 92.8949,-220.2298 2.9329,-13.6919 -11.46463,-23.7341 -22.21113,-15.4921 -2.28968,1.7561 -8.17777,17.5607 -13.08465,35.1214 -11.28714,40.3942 -32.99726,94.621 -53.68756,134.0988 -14.60528,27.8674 -37.23689,65.8059 -37.29655,62.522 -0.0134,-0.7346 2.72821,-12.2289 6.09234,-25.5428 3.36413,-13.3139 8.00744,-35.7013 10.31846,-49.7498 16.79346,-102.086 33.35383,-152.2489 61.69902,-186.8922 9.41562,-11.5077 11.05904,-21.1232 4.69751,-27.4848 -10.45689,-10.4569 -24.4146,0.2847 -44.57034,34.3003 -20.97947,35.4059 -32.52417,74.1558 -47.22905,158.525 -4.97645,28.5523 -9.69582,52.5532 -10.4875,53.3353 -0.79167,0.7821 -0.95077,-37.0837 -0.35354,-84.1463 0.98724,-77.7968 1.58936,-87.4242 6.62964,-106.0026 18.68766,-68.8822 71.84362,-133.2919 136.04698,-164.8495 l 16.86523,-8.2898 25.28036,19.1187 c 36.24125,27.4081 61.04689,43.5889 91.67023,59.7969 l 26.8413,14.2063 v 21.7275 c 0,39.8067 -14.54636,96.4094 -35.98559,140.0268 -30.00686,61.0481 -84.35484,119.5561 -154.26369,166.0719 -11.57633,7.7026 -21.87087,14.0048 -22.87675,14.0048 -1.00588,0 14.7938,-16.3794 35.1104,-36.3985 52.81117,-52.038 81.08214,-92.2589 101.55543,-144.4822 16.35593,-41.7206 16.33081,-59.2215 -0.085,-59.2215 -9.47778,0 -13.77955,5.8955 -19.11232,26.193 -9.79817,37.2935 -40.96694,90.5825 -76.44441,130.6962 -19.32609,21.8516 -93.543,89.2858 -93.543,84.994 z"
   id="path3" /><path
   style="fill:#ffff00;stroke-width:2.55428"
   d="m 741.94335,1432.0595 c -28.82428,-15.0919 -39.31175,-21.8882 -78.45975,-50.8453 -16.70124,-12.3536 -26.78227,-21.4517 -25.74662,-23.2364 7.14342,-12.3098 45.45498,-68.0783 58.06905,-84.5287 8.55828,-11.1611 16.34037,-21.4407 17.29353,-22.8436 0.99674,-1.4671 6.42267,1.7571 12.77139,7.589 26.28216,24.1428 68.66449,53.6956 102.50187,71.4737 l 19.9437,10.4784 -22.18933,30.4376 c -17.55487,24.0803 -43.09765,56.8142 -57.03794,73.096 -0.84292,0.9845 -13.05858,-4.2448 -27.1459,-11.6207 z"
   id="path4" /></svg>
